<svg width="24" height="24" viewBox="0 0 24 24" fill="none" xmlns="http://www.w3.org/2000/svg">
<path d="M12 2.25C6.6 2.25 2.25 6.6 2.25 12C2.25 17.4 6.6 21.75 12 21.75C17.4 21.75 21.75 17.4 21.75 12C21.75 10.9515 21.609 9.90525 21.234 8.9295L20.016 10.125C20.166 10.725 20.2507 11.3265 20.2507 12C20.2507 16.5765 16.5772 20.25 12.0007 20.25C7.42425 20.25 3.75 16.5765 3.75 12C3.75 7.4235 7.4235 3.75 12 3.75C14.25 3.75 16.2712 4.64625 17.6955 6.0705L18.75 5.016C17.025 3.2895 14.625 2.25 12 2.25ZM20.4608 5.46075L12 13.9222L8.78925 10.7108L7.71075 11.7892L11.4608 15.5392L12 16.0545L12.5392 15.5392L21.5392 6.53925L20.4608 5.46075Z" fill="white"/>
</svg>
